<?xml version='1.0' encoding='ascii'?>
<svg xmlns="http://www.w3.org/2000/svg" height="200" version="1.1" width="200">
    <g id="View Layer_LineSet" inkscape:groupmode="lineset" inkscape:label="View Layer_LineSet" xmlns:inkscape="http://www.inkscape.org/namespaces/inkscape">
        <g id="strokes" inkscape:groupmode="layer" inkscape:label="strokes" xmlns:inkscape="http://www.inkscape.org/namespaces/inkscape">
            <path d=" M 67.301, 122.533 67.301, 112.533 67.301, 102.533 67.301, 92.533 67.301, 83.687 67.301, 78.219 67.301, 68.219 67.301, 58.219 67.301, 48.219 67.301, 38.219 67.301, 30.701 77.301, 30.701 87.301, 30.701 97.301, 30.701 107.301, 30.701 117.301, 30.701 127.301, 30.701 132.699, 30.701 132.699, 40.701 132.699, 50.701 132.699, 60.701 132.699, 70.701 132.699, 78.219 132.699, 83.687 132.699, 93.687 132.699, 103.687 132.699, 113.687 132.699, 123.687 132.699, 133.687 132.699, 143.687 132.699, 153.687 132.699, 157.947 122.699, 157.947 112.699, 157.947 102.699, 157.947 92.699, 157.947 82.699, 157.947 72.699, 157.947 67.301, 157.947 67.301, 147.947 67.301, 143.374 " fill="none" stroke="rgb(0, 0, 0)" stroke-linecap="butt" stroke-linejoin="round" stroke-opacity="1.0" stroke-width="3.0" />
            <path d=" M 144.621, 127.225 144.621, 117.225 144.621, 107.225 144.621, 97.225 144.621, 87.225 144.621, 85.041 144.621, 79.486 144.621, 69.486 144.621, 59.486 144.621, 49.486 144.621, 39.486 144.621, 29.486 144.621, 19.475 134.621, 19.475 124.621, 19.475 114.621, 19.475 104.621, 19.475 94.621, 19.475 84.621, 19.475 74.621, 19.475 64.621, 19.475 55.379, 19.475 55.379, 29.475 55.379, 39.475 55.379, 49.475 55.379, 59.475 55.379, 69.475 55.379, 79.486 55.379, 85.041 55.379, 95.041 55.379, 105.041 55.379, 115.041 55.379, 125.041 55.379, 127.100 " fill="none" stroke="rgb(0, 0, 0)" stroke-linecap="butt" stroke-linejoin="round" stroke-opacity="1.0" stroke-width="3.0" />
            <path d=" M 109.172, 168.460 108.474, 171.970 106.486, 174.946 103.510, 176.934 100.000, 177.632 96.490, 176.934 93.514, 174.946 91.526, 171.970 90.828, 168.460 91.526, 164.950 93.514, 161.975 96.490, 159.987 100.000, 159.288 103.510, 159.987 106.486, 161.975 108.474, 164.950 109.172, 168.460 " fill="none" stroke="rgb(0, 0, 0)" stroke-linecap="butt" stroke-linejoin="round" stroke-opacity="1.0" stroke-width="3.0" />
            <path d=" M 55.379, 136.054 55.379, 146.054 55.379, 156.054 55.379, 166.054 55.379, 176.054 55.379, 180.525 65.379, 180.525 75.379, 180.525 85.379, 180.525 95.379, 180.525 105.379, 180.525 115.379, 180.525 125.379, 180.525 135.379, 180.525 144.621, 180.525 144.621, 170.525 144.621, 160.525 144.621, 150.525 144.621, 140.525 144.621, 136.215 " fill="none" stroke="rgb(0, 0, 0)" stroke-linecap="butt" stroke-linejoin="round" stroke-opacity="1.0" stroke-width="3.0" />
            <path d=" M 77.655, 78.155 77.727, 79.447 77.735, 80.964 77.679, 82.228 77.578, 82.876 77.466, 82.787 77.372, 82.069 77.313, 80.943 77.301, 79.646 77.340, 78.436 77.427, 77.622 77.543, 77.491 77.655, 78.155 " fill="none" stroke="rgb(0, 0, 0)" stroke-linecap="butt" stroke-linejoin="round" stroke-opacity="1.0" stroke-width="3.0" />
            <path d=" M 77.543, 77.491 69.080, 78.030 67.301, 78.219 " fill="none" stroke="rgb(0, 0, 0)" stroke-linecap="butt" stroke-linejoin="round" stroke-opacity="1.0" stroke-width="3.0" />
            <path d=" M 67.301, 83.687 69.505, 83.436 77.578, 82.876 " fill="none" stroke="rgb(0, 0, 0)" stroke-linecap="butt" stroke-linejoin="round" stroke-opacity="1.0" stroke-width="3.0" />
            <path d=" M 40.907, 87.876 50.712, 85.913 54.650, 85.124 55.379, 85.041 " fill="none" stroke="rgb(0, 0, 0)" stroke-linecap="butt" stroke-linejoin="round" stroke-opacity="1.0" stroke-width="3.0" />
            <path d=" M 55.379, 79.486 53.814, 79.652 43.985, 81.492 39.269, 82.375 29.665, 85.163 26.053, 86.211 16.915, 90.274 14.948, 91.148 6.939, 97.108 5.685, 98.282 1.788, 105.273 1.428, 107.149 3.112, 114.785 3.983, 116.587 11.417, 123.275 12.323, 124.090 14.028, 124.950 23.244, 128.832 29.027, 131.268 38.822, 133.286 48.616, 135.303 49.935, 135.574 55.379, 136.054 65.340, 136.930 66.173, 137.003 " fill="none" stroke="rgb(0, 0, 0)" stroke-linecap="butt" stroke-linejoin="round" stroke-opacity="1.0" stroke-width="3.0" />
            <path d=" M 11.618, 102.106 18.365, 96.636 27.384, 92.317 28.769, 91.654 38.317, 88.682 40.907, 87.876 41.270, 87.763 " fill="none" stroke="rgb(0, 0, 0)" stroke-linecap="butt" stroke-linejoin="round" stroke-opacity="1.0" stroke-width="3.0" />
            <path d=" M 66.348, 128.021 56.383, 127.184 55.379, 127.100 51.331, 126.760 41.511, 124.872 31.691, 122.984 31.416, 122.931 22.105, 119.284 17.219, 117.370 17.016, 117.291 " fill="none" stroke="rgb(0, 0, 0)" stroke-linecap="butt" stroke-linejoin="round" stroke-opacity="1.0" stroke-width="3.0" />
            <path d=" M 66.473, 126.003 66.348, 128.021 66.128, 131.580 66.173, 137.003 66.178, 137.649 66.613, 142.049 67.264, 143.384 67.301, 143.374 76.953, 140.758 86.605, 138.143 96.257, 135.528 105.909, 132.913 107.481, 132.487 97.796, 130.000 88.110, 127.513 78.424, 125.026 68.738, 122.539 67.694, 122.270 67.301, 122.533 67.064, 122.692 66.473, 126.003 " fill="none" stroke="rgb(0, 0, 0)" stroke-linecap="butt" stroke-linejoin="round" stroke-opacity="1.0" stroke-width="3.0" />
            <path d=" M 137.556, 132.110 137.533, 134.635 137.331, 136.496 137.022, 137.108 136.711, 136.394 136.484, 134.719 136.383, 132.625 136.414, 130.588 136.565, 128.974 136.814, 128.121 137.117, 128.347 137.396, 129.775 137.556, 132.110 " fill="none" stroke="rgb(0, 0, 0)" stroke-linecap="butt" stroke-linejoin="round" stroke-opacity="1.0" stroke-width="3.0" />
            <path d=" M 182.984, 117.291 182.781, 117.370 173.470, 121.017 168.584, 122.931 158.764, 124.819 148.944, 126.707 148.669, 126.760 144.621, 127.225 136.814, 128.121 " fill="none" stroke="rgb(0, 0, 0)" stroke-linecap="butt" stroke-linejoin="round" stroke-opacity="1.0" stroke-width="3.0" />
            <path d=" M 137.022, 137.108 144.621, 136.215 150.065, 135.574 159.860, 133.557 169.654, 131.540 170.973, 131.268 180.189, 127.386 185.972, 124.950 187.677, 124.090 195.111, 117.401 196.017, 116.587 196.888, 114.785 198.572, 107.149 198.212, 105.273 194.315, 98.282 193.061, 97.108 185.052, 91.148 175.914, 87.086 173.947, 86.211 164.343, 83.423 160.731, 82.375 150.902, 80.535 146.186, 79.652 144.621, 79.486 " fill="none" stroke="rgb(0, 0, 0)" stroke-linecap="butt" stroke-linejoin="round" stroke-opacity="1.0" stroke-width="3.0" />
            <path d=" M 189.626, 111.741 189.402, 111.925 182.781, 117.370 " fill="none" stroke="rgb(0, 0, 0)" stroke-linecap="butt" stroke-linejoin="round" stroke-opacity="1.0" stroke-width="3.0" />
            <path d=" M 190.997, 106.467 190.798, 107.148 189.402, 111.925 " fill="none" stroke="rgb(0, 0, 0)" stroke-linecap="butt" stroke-linejoin="round" stroke-opacity="1.0" stroke-width="3.0" />
            <path d=" M 188.070, 101.455 188.382, 102.106 190.798, 107.148 " fill="none" stroke="rgb(0, 0, 0)" stroke-linecap="butt" stroke-linejoin="round" stroke-opacity="1.0" stroke-width="3.0" />
            <path d=" M 158.730, 87.763 159.093, 87.876 168.641, 90.848 171.231, 91.654 180.250, 95.973 181.635, 96.636 188.382, 102.106 " fill="none" stroke="rgb(0, 0, 0)" stroke-linecap="butt" stroke-linejoin="round" stroke-opacity="1.0" stroke-width="3.0" />
            <path d=" M 144.621, 85.041 145.350, 85.124 155.156, 87.088 159.093, 87.876 " fill="none" stroke="rgb(0, 0, 0)" stroke-linecap="butt" stroke-linejoin="round" stroke-opacity="1.0" stroke-width="3.0" />
            <path d=" M 120.197, 82.898 130.183, 83.420 130.495, 83.436 132.699, 83.687 " fill="none" stroke="rgb(0, 0, 0)" stroke-linecap="butt" stroke-linejoin="round" stroke-opacity="1.0" stroke-width="3.0" />
            <path d=" M 132.699, 78.219 130.920, 78.030 120.931, 77.546 120.229, 77.512 " fill="none" stroke="rgb(0, 0, 0)" stroke-linecap="butt" stroke-linejoin="round" stroke-opacity="1.0" stroke-width="3.0" />
            <path d=" M 119.761, 73.812 110.091, 76.362 100.421, 78.911 95.445, 80.223 105.132, 82.705 114.820, 85.188 119.689, 86.435 119.921, 86.268 120.119, 84.600 120.197, 82.898 120.242, 81.936 120.267, 78.849 120.229, 77.512 120.184, 75.979 120.002, 74.077 119.761, 73.812 " fill="none" stroke="rgb(0, 0, 0)" stroke-linecap="butt" stroke-linejoin="round" stroke-opacity="1.0" stroke-width="3.0" />
            <path d=" M 10.598, 111.925 9.202, 107.148 9.003, 106.467 " fill="none" stroke="rgb(0, 0, 0)" stroke-linecap="butt" stroke-linejoin="round" stroke-opacity="1.0" stroke-width="3.0" />
            <path d=" M 9.202, 107.148 11.618, 102.106 11.930, 101.455 " fill="none" stroke="rgb(0, 0, 0)" stroke-linecap="butt" stroke-linejoin="round" stroke-opacity="1.0" stroke-width="3.0" />
            <path d=" M 17.219, 117.370 10.598, 111.925 10.374, 111.741 " fill="none" stroke="rgb(0, 0, 0)" stroke-linecap="butt" stroke-linejoin="round" stroke-opacity="1.0" stroke-width="3.0" />
        </g>
    </g>
</svg>
